# xmcd
#
# Track frame offsets:
#	150
#	16094
#	55664
#	75659
#	96319
#	154275
#	197545
#
# Disc length: 3518 seconds
#
# Revision: 0
# Processed by: cddbd v1.5.1PL2 Copyright (c) Steve Scherf et al.
# Submitted via: EasyCDDAExtractor 9.0.0.1
#
DISCID=4a0dbc07
DTITLE=Blue Oyster Cult - Sports Rock Bristol CT 11-07-98 Disc 2
DYEAR=1998
DGENRE=Hard Rock
TTITLE0=The Last Days Of May
TTITLE1=In Thee
TTITLE2=Lips In The Hills
TTITLE3=Unknown
TTITLE4=Godzilla
TTITLE5=(Don't Fear)The Reaper
TTITLE6=The Golden Age Of Leather
EXTD=
EXTT0=
EXTT1=
EXTT2=
EXTT3=
EXTT4=
EXTT5=
EXTT6=
PLAYORDER=
